<svg xmlns="http://www.w3.org/2000/svg" xmlns:xlink="http://www.w3.org/1999/xlink" viewBox="0 0 177 26" version="1.1" width="100px" height="15px">
    <!-- Generator: Sketch 52.6 (67491) - http://www.bohemiancoding.com/sketch -->
    <title>nissan</title>
    <desc>Created with Sketch.</desc>
    <g id="Page-1" stroke="none" stroke-width="1" fill="none" fill-rule="evenodd" fill-color-id="-1" stroke-color-id="-1" recolor-fill="true" recolor-stroke="true">
        <g id="nissan" transform="translate(0.000000, -1.000000)" fill="#C61935FF" fill-rule="nonzero" fill-color-id="0" stroke-color-id="-1" recolor-fill="true" recolor-stroke="true">
            <path d="M122.1,15.7 C124,11.3 125.8,7 125.8,6.9 C125.9,6.7 126.1,6.5 126.4,6.5 L127.8,6.5 C128.1,6.5 128.3,6.7 128.4,6.9 C128.9,8.1 130.4,11.9 132,15.7 L122.1,15.7 Z M134.6,4.9 C132.8,0.7 133.5,1.2 129.4,1 L124.6,1 C120.8,1.1 121.4,0.8 120.1,3.5 C120.1,3.5 113.6,18.4 110.8,24.5 L110.7,24.8 C110.2,25.8 110.6,25.9 111.4,25.9 L117.3,25.9 C117.7,25.9 117.9,25.7 118,25.5 C118,25.5 118.8,23.6 119.9,21 L134.2,21 C134.8,22.5 135.5,24 136.1,25.5 C136.2,25.8 136.5,26 136.8,26 L142.9,26 C143.8,26 144,26.1 143.7,25.3 C142.6,22.7 135.6,7.3 134.6,4.9 Z M42.9,1 L36.9,1 C36.4,1 36.3,1.2 36.3,1.6 L36.3,25.1 C36.3,25.7 36.4,25.9 37.1,25.9 L42.8,25.9 C43.4,25.9 43.6,25.8 43.6,25.1 L43.6,1.7 C43.5,1.2 43.4,1 42.9,1 Z M29.5,1 L24.6,1 C24,1 23.8,1.2 23.8,1.8 L23.8,20.4 C23.8,20.4 14,5.1 12.7,3.1 C11.2,0.9 10.7,1 6.4,1 L0.8,1 C0.1,1 0,1.2 0,1.8 L0,25.2 C0,25.8 0.2,26 0.8,26 L5.7,26 C6.4,26 6.5,25.9 6.5,25.2 L6.5,6.8 C6.5,6.8 14.6,19.5 17.3,23.8 C18.7,26 18.9,26 22.9,26 L29.5,26 C30.1,26 30.3,25.9 30.3,25.2 L30.3,1.8 C30.3,1.2 30.1,1 29.5,1 Z M175.7,1 L170.8,1 C170.2,1 170,1.2 170,1.8 L170,20.4 C170,20.4 160.2,5.1 158.9,3.1 C157.4,0.8 156.9,1 152.6,1 L147,1 C146.3,1 146.2,1.2 146.2,1.8 L146.2,25.2 C146.2,25.8 146.3,26 147,26 L151.9,26 C152.6,26 152.7,25.9 152.7,25.2 L152.7,6.8 C152.7,6.8 160.8,19.5 163.5,23.8 C164.9,26 165.1,26 169.1,26 L175.7,26 C176.3,26 176.5,25.9 176.5,25.2 L176.5,1.8 C176.5,1.2 176.4,1 175.7,1 Z M68.5,10.6 C66.1,10.4 59.7,9.8 57.6,9.6 C56.8,9.5 56.6,9.1 56.5,8.6 L56.5,8 L56.5,7.5 C56.6,6.8 56.9,6.5 57.7,6.5 L75.2,6.5 C75.8,6.5 76,6.4 76,5.7 L76,1.7 C76,1.1 75.8,1 75.2,1 L57.5,1 C52.9,1 50.3,2.7 49.6,6.2 C49.4,7 49.4,7.9 49.4,8.6 C49.4,9.4 49.5,10.3 49.5,10.9 C49.8,12.9 51,15.2 56.3,15.8 C60.5,16.2 66.6,16.7 68.6,16.9 C69.5,17 69.7,17.7 69.7,18.1 L69.7,19.7 C69.7,20.3 69.4,20.5 68.7,20.5 L50.3,20.5 C49.7,20.5 49.5,20.6 49.5,21.3 L49.5,25.3 C49.5,25.9 49.7,26.1 50.3,26.1 L68.6,26.1 C73.1,26.1 76.1,25.3 76.9,21.4 C77.1,20.6 77.1,19.5 77.1,18.7 C77.1,17.5 77,16.5 76.9,16.1 C76.1,11.8 73,11 68.5,10.6 Z M100.6,10.6 C98.2,10.4 91.8,9.8 89.7,9.6 C88.9,9.5 88.7,9.1 88.6,8.6 L88.6,8 L88.6,7.5 C88.7,6.8 89,6.5 89.8,6.5 L107.3,6.5 C107.9,6.5 108.1,6.4 108.1,5.7 L108.1,1.7 C108.1,1.1 107.9,1 107.3,1 L89.6,1 C85,1 82.4,2.7 81.7,6.2 C81.5,7 81.5,7.9 81.5,8.6 C81.5,9.4 81.6,10.3 81.6,10.9 C81.9,12.9 83.1,15.2 88.4,15.8 C92.6,16.2 98.7,16.7 100.7,16.9 C101.6,17 101.8,17.7 101.8,18.1 L101.8,19.7 C101.8,20.3 101.5,20.5 100.8,20.5 L82.4,20.5 C81.7,20.5 81.6,20.6 81.6,21.3 L81.6,25.3 C81.6,25.9 81.8,26.1 82.4,26.1 L100.7,26.1 C105.2,26.1 108.2,25.3 109,21.4 C109.2,20.6 109.2,19.5 109.2,18.7 C109.2,17.5 109.1,16.5 109,16.1 C108.1,11.8 105,11 100.6,10.6 Z" id="Shape" fill-color-id="0" stroke-color-id="-1" recolor-fill="true" recolor-stroke="true" fill="#C61935FF"/>
        </g>
    </g>
</svg>